<?xml version="1.0" encoding="utf-8" standalone="no"?>
<!DOCTYPE svg PUBLIC "-//W3C//DTD SVG 1.1//EN"
  "http://www.w3.org/Graphics/SVG/1.1/DTD/svg11.dtd">
<svg xmlns:xlink="http://www.w3.org/1999/xlink" width="434.256459pt" height="321.782626pt" viewBox="0 0 434.256459 321.782626" xmlns="http://www.w3.org/2000/svg" version="1.1">
 <metadata>
  <rdf:RDF xmlns:dc="http://purl.org/dc/elements/1.1/" xmlns:cc="http://creativecommons.org/ns#" xmlns:rdf="http://www.w3.org/1999/02/22-rdf-syntax-ns#">
   <cc:Work>
    <dc:type rdf:resource="http://purl.org/dc/dcmitype/StillImage"/>
    <dc:date>2026-07-29T19:15:54.841075</dc:date>
    <dc:format>image/svg+xml</dc:format>
    <dc:creator>
     <cc:Agent>
      <dc:title>Matplotlib v3.10.5, https://matplotlib.org/</dc:title>
     </cc:Agent>
    </dc:creator>
   </cc:Work>
  </rdf:RDF>
 </metadata>
 <defs>
  <style type="text/css">*{stroke-linejoin: round; stroke-linecap: butt}</style>
 </defs>
 <g id="figure_1">
  <g id="patch_1">
   <path d="M 0 321.782626 
L 434.256459 321.782626 
L 434.256459 0 
L 0 0 
z
" style="fill: #ffffff"/>
  </g>
  <g id="axes_1">
   <g id="patch_2">
    <path d="M 52.805625 285.790751 
L 415.505625 285.790751 
L 415.505625 8.590751 
L 52.805625 8.590751 
z
" style="fill: #ffffff"/>
   </g>
   <g id="matplotlib.axis_1">
    <g id="xtick_1">
     <g id="line2d_1">
      <defs>
       <path id="mf978f79b55" d="M 0 0 
L 0 -3.5 
" style="stroke: #000000; stroke-width: 0.8"/>
      </defs>
      <g>
       <use xlink:href="#mf978f79b55" x="62.198956" y="285.790751" style="stroke: #000000; stroke-width: 0.8"/>
      </g>
     </g>
     <g id="text_1">
      <!-- 40 -->
      <g transform="translate(55.836456 296.889189) scale(0.1 -0.1)">
       <defs>
        <path id="DejaVuSans-34" d="M 2419 4116 
L 825 1625 
L 2419 1625 
L 2419 4116 
z
M 2253 4666 
L 3047 4666 
L 3047 1625 
L 3713 1625 
L 3713 1100 
L 3047 1100 
L 3047 0 
L 2419 0 
L 2419 1100 
L 313 1100 
L 313 1709 
L 2253 4666 
z
" transform="scale(0.015625)"/>
        <path id="DejaVuSans-30" d="M 2034 4250 
Q 1547 4250 1301 3770 
Q 1056 3291 1056 2328 
Q 1056 1369 1301 889 
Q 1547 409 2034 409 
Q 2525 409 2770 889 
Q 3016 1369 3016 2328 
Q 3016 3291 2770 3770 
Q 2525 4250 2034 4250 
z
M 2034 4750 
Q 2819 4750 3233 4129 
Q 3647 3509 3647 2328 
Q 3647 1150 3233 529 
Q 2819 -91 2034 -91 
Q 1250 -91 836 529 
Q 422 1150 422 2328 
Q 422 3509 836 4129 
Q 1250 4750 2034 4750 
z
" transform="scale(0.015625)"/>
       </defs>
       <use xlink:href="#DejaVuSans-34"/>
       <use xlink:href="#DejaVuSans-30" transform="translate(63.623047 0)"/>
      </g>
     </g>
    </g>
    <g id="xtick_2">
     <g id="line2d_2">
      <g>
       <use xlink:href="#mf978f79b55" x="179.498179" y="285.790751" style="stroke: #000000; stroke-width: 0.8"/>
      </g>
     </g>
     <g id="text_2">
      <!-- 1040 -->
      <g transform="translate(166.773179 296.889189) scale(0.1 -0.1)">
       <defs>
        <path id="DejaVuSans-31" d="M 794 531 
L 1825 531 
L 1825 4091 
L 703 3866 
L 703 4441 
L 1819 4666 
L 2450 4666 
L 2450 531 
L 3481 531 
L 3481 0 
L 794 0 
L 794 531 
z
" transform="scale(0.015625)"/>
       </defs>
       <use xlink:href="#DejaVuSans-31"/>
       <use xlink:href="#DejaVuSans-30" transform="translate(63.623047 0)"/>
       <use xlink:href="#DejaVuSans-34" transform="translate(127.246094 0)"/>
       <use xlink:href="#DejaVuSans-30" transform="translate(190.869141 0)"/>
      </g>
     </g>
    </g>
    <g id="xtick_3">
     <g id="line2d_3">
      <g>
       <use xlink:href="#mf978f79b55" x="296.914819" y="285.790751" style="stroke: #000000; stroke-width: 0.8"/>
      </g>
     </g>
     <g id="text_3">
      <!-- 2040 -->
      <g transform="translate(284.189819 296.889189) scale(0.1 -0.1)">
       <defs>
        <path id="DejaVuSans-32" d="M 1228 531 
L 3431 531 
L 3431 0 
L 469 0 
L 469 531 
Q 828 903 1448 1529 
Q 2069 2156 2228 2338 
Q 2531 2678 2651 2914 
Q 2772 3150 2772 3378 
Q 2772 3750 2511 3984 
Q 2250 4219 1831 4219 
Q 1534 4219 1204 4116 
Q 875 4013 500 3803 
L 500 4441 
Q 881 4594 1212 4672 
Q 1544 4750 1819 4750 
Q 2544 4750 2975 4387 
Q 3406 4025 3406 3419 
Q 3406 3131 3298 2873 
Q 3191 2616 2906 2266 
Q 2828 2175 2409 1742 
Q 1991 1309 1228 531 
z
" transform="scale(0.015625)"/>
       </defs>
       <use xlink:href="#DejaVuSans-32"/>
       <use xlink:href="#DejaVuSans-30" transform="translate(63.623047 0)"/>
       <use xlink:href="#DejaVuSans-34" transform="translate(127.246094 0)"/>
       <use xlink:href="#DejaVuSans-30" transform="translate(190.869141 0)"/>
      </g>
     </g>
    </g>
    <g id="xtick_4">
     <g id="line2d_4">
      <g>
       <use xlink:href="#mf978f79b55" x="414.331459" y="285.790751" style="stroke: #000000; stroke-width: 0.8"/>
      </g>
     </g>
     <g id="text_4">
      <!-- 3040 -->
      <g transform="translate(401.606459 296.889189) scale(0.1 -0.1)">
       <defs>
        <path id="DejaVuSans-33" d="M 2597 2516 
Q 3050 2419 3304 2112 
Q 3559 1806 3559 1356 
Q 3559 666 3084 287 
Q 2609 -91 1734 -91 
Q 1441 -91 1130 -33 
Q 819 25 488 141 
L 488 750 
Q 750 597 1062 519 
Q 1375 441 1716 441 
Q 2309 441 2620 675 
Q 2931 909 2931 1356 
Q 2931 1769 2642 2001 
Q 2353 2234 1838 2234 
L 1294 2234 
L 1294 2753 
L 1863 2753 
Q 2328 2753 2575 2939 
Q 2822 3125 2822 3475 
Q 2822 3834 2567 4026 
Q 2313 4219 1838 4219 
Q 1578 4219 1281 4162 
Q 984 4106 628 3988 
L 628 4550 
Q 988 4650 1302 4700 
Q 1616 4750 1894 4750 
Q 2613 4750 3031 4423 
Q 3450 4097 3450 3541 
Q 3450 3153 3228 2886 
Q 3006 2619 2597 2516 
z
" transform="scale(0.015625)"/>
       </defs>
       <use xlink:href="#DejaVuSans-33"/>
       <use xlink:href="#DejaVuSans-30" transform="translate(63.623047 0)"/>
       <use xlink:href="#DejaVuSans-34" transform="translate(127.246094 0)"/>
       <use xlink:href="#DejaVuSans-30" transform="translate(190.869141 0)"/>
      </g>
     </g>
    </g>
    <g id="text_5">
     <!-- epoch -->
     <g transform="translate(215.926875 312.087001) scale(0.12 -0.12)">
      <defs>
       <path id="DejaVuSerif-65" d="M 3469 1600 
L 991 1600 
L 991 1575 
Q 991 903 1244 561 
Q 1497 219 1991 219 
Q 2369 219 2611 417 
Q 2853 616 2950 1006 
L 3413 1006 
Q 3275 459 2904 184 
Q 2534 -91 1931 -91 
Q 1203 -91 761 389 
Q 319 869 319 1663 
Q 319 2450 753 2931 
Q 1188 3413 1894 3413 
Q 2647 3413 3050 2948 
Q 3453 2484 3469 1600 
z
M 2791 1931 
Q 2772 2513 2545 2808 
Q 2319 3103 1894 3103 
Q 1497 3103 1269 2806 
Q 1041 2509 991 1931 
L 2791 1931 
z
" transform="scale(0.015625)"/>
       <path id="DejaVuSerif-70" d="M 1313 1825 
L 1313 1497 
Q 1313 897 1542 583 
Q 1772 269 2209 269 
Q 2650 269 2876 622 
Q 3103 975 3103 1663 
Q 3103 2353 2876 2703 
Q 2650 3053 2209 3053 
Q 1772 3053 1542 2737 
Q 1313 2422 1313 1825 
z
M 738 2988 
L 184 2988 
L 184 3322 
L 1313 3322 
L 1313 2803 
Q 1481 3116 1742 3264 
Q 2003 3413 2388 3413 
Q 3000 3413 3387 2928 
Q 3775 2444 3775 1663 
Q 3775 881 3387 395 
Q 3000 -91 2388 -91 
Q 2003 -91 1742 57 
Q 1481 206 1313 519 
L 1313 -997 
L 1856 -997 
L 1856 -1331 
L 184 -1331 
L 184 -997 
L 738 -997 
L 738 2988 
z
" transform="scale(0.015625)"/>
       <path id="DejaVuSerif-6f" d="M 1925 219 
Q 2388 219 2623 584 
Q 2859 950 2859 1663 
Q 2859 2375 2623 2739 
Q 2388 3103 1925 3103 
Q 1463 3103 1227 2739 
Q 991 2375 991 1663 
Q 991 950 1228 584 
Q 1466 219 1925 219 
z
M 1925 -91 
Q 1200 -91 759 389 
Q 319 869 319 1663 
Q 319 2456 758 2934 
Q 1197 3413 1925 3413 
Q 2653 3413 3092 2934 
Q 3531 2456 3531 1663 
Q 3531 869 3092 389 
Q 2653 -91 1925 -91 
z
" transform="scale(0.015625)"/>
       <path id="DejaVuSerif-63" d="M 3291 997 
Q 3169 466 2822 187 
Q 2475 -91 1925 -91 
Q 1200 -91 759 389 
Q 319 869 319 1663 
Q 319 2459 759 2936 
Q 1200 3413 1925 3413 
Q 2241 3413 2553 3339 
Q 2866 3266 3181 3116 
L 3181 2266 
L 2847 2266 
Q 2781 2703 2561 2903 
Q 2341 3103 1931 3103 
Q 1466 3103 1228 2742 
Q 991 2381 991 1663 
Q 991 944 1227 581 
Q 1463 219 1931 219 
Q 2303 219 2525 412 
Q 2747 606 2828 997 
L 3291 997 
z
" transform="scale(0.015625)"/>
       <path id="DejaVuSerif-68" d="M 263 0 
L 263 331 
L 781 331 
L 781 4531 
L 231 4531 
L 231 4863 
L 1356 4863 
L 1356 2731 
Q 1516 3069 1770 3241 
Q 2025 3413 2363 3413 
Q 2913 3413 3172 3097 
Q 3431 2781 3431 2113 
L 3431 331 
L 3944 331 
L 3944 0 
L 2356 0 
L 2356 331 
L 2853 331 
L 2853 1931 
Q 2853 2541 2704 2764 
Q 2556 2988 2175 2988 
Q 1775 2988 1565 2697 
Q 1356 2406 1356 1850 
L 1356 331 
L 1856 331 
L 1856 0 
L 263 0 
z
" transform="scale(0.015625)"/>
      </defs>
      <use xlink:href="#DejaVuSerif-65"/>
      <use xlink:href="#DejaVuSerif-70" transform="translate(59.179688 0)"/>
      <use xlink:href="#DejaVuSerif-6f" transform="translate(123.193359 0)"/>
      <use xlink:href="#DejaVuSerif-63" transform="translate(183.398438 0)"/>
      <use xlink:href="#DejaVuSerif-68" transform="translate(239.404297 0)"/>
     </g>
    </g>
   </g>
   <g id="matplotlib.axis_2">
    <g id="ytick_1">
     <g id="line2d_5">
      <defs>
       <path id="mfe0a44e4c4" d="M 0 0 
L 3.5 0 
" style="stroke: #000000; stroke-width: 0.8"/>
      </defs>
      <g>
       <use xlink:href="#mfe0a44e4c4" x="52.805625" y="273.747266" style="stroke: #000000; stroke-width: 0.8"/>
      </g>
     </g>
     <g id="text_6">
      <!-- 4.36 -->
      <g transform="translate(27.04 277.546485) scale(0.1 -0.1)">
       <defs>
        <path id="DejaVuSans-2e" d="M 684 794 
L 1344 794 
L 1344 0 
L 684 0 
L 684 794 
z
" transform="scale(0.015625)"/>
        <path id="DejaVuSans-36" d="M 2113 2584 
Q 1688 2584 1439 2293 
Q 1191 2003 1191 1497 
Q 1191 994 1439 701 
Q 1688 409 2113 409 
Q 2538 409 2786 701 
Q 3034 994 3034 1497 
Q 3034 2003 2786 2293 
Q 2538 2584 2113 2584 
z
M 3366 4563 
L 3366 3988 
Q 3128 4100 2886 4159 
Q 2644 4219 2406 4219 
Q 1781 4219 1451 3797 
Q 1122 3375 1075 2522 
Q 1259 2794 1537 2939 
Q 1816 3084 2150 3084 
Q 2853 3084 3261 2657 
Q 3669 2231 3669 1497 
Q 3669 778 3244 343 
Q 2819 -91 2113 -91 
Q 1303 -91 875 529 
Q 447 1150 447 2328 
Q 447 3434 972 4092 
Q 1497 4750 2381 4750 
Q 2619 4750 2861 4703 
Q 3103 4656 3366 4563 
z
" transform="scale(0.015625)"/>
       </defs>
       <use xlink:href="#DejaVuSans-34"/>
       <use xlink:href="#DejaVuSans-2e" transform="translate(63.623047 0)"/>
       <use xlink:href="#DejaVuSans-33" transform="translate(95.410156 0)"/>
       <use xlink:href="#DejaVuSans-36" transform="translate(159.033203 0)"/>
      </g>
     </g>
    </g>
    <g id="ytick_2">
     <g id="line2d_6">
      <g>
       <use xlink:href="#mfe0a44e4c4" x="52.805625" y="186.164967" style="stroke: #000000; stroke-width: 0.8"/>
      </g>
     </g>
     <g id="text_7">
      <!-- 4.39 -->
      <g transform="translate(27.04 189.964185) scale(0.1 -0.1)">
       <defs>
        <path id="DejaVuSans-39" d="M 703 97 
L 703 672 
Q 941 559 1184 500 
Q 1428 441 1663 441 
Q 2288 441 2617 861 
Q 2947 1281 2994 2138 
Q 2813 1869 2534 1725 
Q 2256 1581 1919 1581 
Q 1219 1581 811 2004 
Q 403 2428 403 3163 
Q 403 3881 828 4315 
Q 1253 4750 1959 4750 
Q 2769 4750 3195 4129 
Q 3622 3509 3622 2328 
Q 3622 1225 3098 567 
Q 2575 -91 1691 -91 
Q 1453 -91 1209 -44 
Q 966 3 703 97 
z
M 1959 2075 
Q 2384 2075 2632 2365 
Q 2881 2656 2881 3163 
Q 2881 3666 2632 3958 
Q 2384 4250 1959 4250 
Q 1534 4250 1286 3958 
Q 1038 3666 1038 3163 
Q 1038 2656 1286 2365 
Q 1534 2075 1959 2075 
z
" transform="scale(0.015625)"/>
       </defs>
       <use xlink:href="#DejaVuSans-34"/>
       <use xlink:href="#DejaVuSans-2e" transform="translate(63.623047 0)"/>
       <use xlink:href="#DejaVuSans-33" transform="translate(95.410156 0)"/>
       <use xlink:href="#DejaVuSans-39" transform="translate(159.033203 0)"/>
      </g>
     </g>
    </g>
    <g id="ytick_3">
     <g id="line2d_7">
      <g>
       <use xlink:href="#mfe0a44e4c4" x="52.805625" y="98.582667" style="stroke: #000000; stroke-width: 0.8"/>
      </g>
     </g>
     <g id="text_8">
      <!-- 4.43 -->
      <g transform="translate(27.04 102.381886) scale(0.1 -0.1)">
       <use xlink:href="#DejaVuSans-34"/>
       <use xlink:href="#DejaVuSans-2e" transform="translate(63.623047 0)"/>
       <use xlink:href="#DejaVuSans-34" transform="translate(95.410156 0)"/>
       <use xlink:href="#DejaVuSans-33" transform="translate(159.033203 0)"/>
      </g>
     </g>
    </g>
    <g id="ytick_4">
     <g id="line2d_8">
      <g>
       <use xlink:href="#mfe0a44e4c4" x="52.805625" y="10.999219" style="stroke: #000000; stroke-width: 0.8"/>
      </g>
     </g>
     <g id="text_9">
      <!-- 4.46 -->
      <g transform="translate(27.04 14.798438) scale(0.1 -0.1)">
       <use xlink:href="#DejaVuSans-34"/>
       <use xlink:href="#DejaVuSans-2e" transform="translate(63.623047 0)"/>
       <use xlink:href="#DejaVuSans-34" transform="translate(95.410156 0)"/>
       <use xlink:href="#DejaVuSans-36" transform="translate(159.033203 0)"/>
      </g>
     </g>
    </g>
    <g id="text_10">
     <!-- travel time $\sqrt{2g}t$ -->
     <g transform="translate(20.52 198.130751) rotate(-90) scale(0.12 -0.12)">
      <defs>
       <path id="DejaVuSerif-74" d="M 691 2988 
L 184 2988 
L 184 3322 
L 691 3322 
L 691 4353 
L 1269 4353 
L 1269 3322 
L 2350 3322 
L 2350 2988 
L 1269 2988 
L 1269 878 
Q 1269 456 1350 337 
Q 1431 219 1650 219 
Q 1875 219 1978 351 
Q 2081 484 2088 781 
L 2522 781 
Q 2497 328 2275 118 
Q 2053 -91 1600 -91 
Q 1103 -91 897 129 
Q 691 350 691 878 
L 691 2988 
z
" transform="scale(0.015625)"/>
       <path id="DejaVuSerif-72" d="M 3059 3328 
L 3059 2497 
L 2728 2497 
Q 2713 2744 2591 2866 
Q 2469 2988 2234 2988 
Q 1809 2988 1582 2694 
Q 1356 2400 1356 1850 
L 1356 331 
L 2022 331 
L 2022 0 
L 263 0 
L 263 331 
L 781 331 
L 781 2994 
L 231 2994 
L 231 3322 
L 1356 3322 
L 1356 2731 
Q 1525 3078 1790 3245 
Q 2056 3413 2438 3413 
Q 2578 3413 2733 3391 
Q 2888 3369 3059 3328 
z
" transform="scale(0.015625)"/>
       <path id="DejaVuSerif-61" d="M 2547 1044 
L 2547 1747 
L 1806 1747 
Q 1378 1747 1168 1562 
Q 959 1378 959 997 
Q 959 650 1171 447 
Q 1384 244 1747 244 
Q 2106 244 2326 466 
Q 2547 688 2547 1044 
z
M 3122 2075 
L 3122 331 
L 3634 331 
L 3634 0 
L 2547 0 
L 2547 359 
Q 2356 128 2106 18 
Q 1856 -91 1522 -91 
Q 969 -91 644 203 
Q 319 497 319 997 
Q 319 1513 691 1797 
Q 1063 2081 1741 2081 
L 2547 2081 
L 2547 2309 
Q 2547 2688 2317 2895 
Q 2088 3103 1672 3103 
Q 1328 3103 1125 2947 
Q 922 2791 872 2484 
L 575 2484 
L 575 3156 
Q 875 3284 1158 3348 
Q 1441 3413 1709 3413 
Q 2400 3413 2761 3070 
Q 3122 2728 3122 2075 
z
" transform="scale(0.015625)"/>
       <path id="DejaVuSerif-76" d="M 1581 0 
L 359 2988 
L -19 2988 
L -19 3322 
L 1509 3322 
L 1509 2988 
L 978 2988 
L 1913 703 
L 2847 2988 
L 2350 2988 
L 2350 3322 
L 3597 3322 
L 3597 2988 
L 3225 2988 
L 2003 0 
L 1581 0 
z
" transform="scale(0.015625)"/>
       <path id="DejaVuSerif-6c" d="M 1313 331 
L 1856 331 
L 1856 0 
L 184 0 
L 184 331 
L 738 331 
L 738 4531 
L 184 4531 
L 184 4863 
L 1313 4863 
L 1313 331 
z
" transform="scale(0.015625)"/>
       <path id="DejaVuSerif-20" transform="scale(0.015625)"/>
       <path id="DejaVuSerif-69" d="M 622 4353 
Q 622 4497 726 4603 
Q 831 4709 978 4709 
Q 1122 4709 1226 4603 
Q 1331 4497 1331 4353 
Q 1331 4206 1228 4103 
Q 1125 4000 978 4000 
Q 831 4000 726 4103 
Q 622 4206 622 4353 
z
M 1356 331 
L 1900 331 
L 1900 0 
L 231 0 
L 231 331 
L 781 331 
L 781 2988 
L 231 2988 
L 231 3322 
L 1356 3322 
L 1356 331 
z
" transform="scale(0.015625)"/>
       <path id="DejaVuSerif-6d" d="M 3316 2675 
Q 3481 3041 3739 3227 
Q 3997 3413 4341 3413 
Q 4863 3413 5119 3089 
Q 5375 2766 5375 2113 
L 5375 331 
L 5894 331 
L 5894 0 
L 4300 0 
L 4300 331 
L 4800 331 
L 4800 2047 
Q 4800 2556 4650 2772 
Q 4500 2988 4153 2988 
Q 3769 2988 3567 2697 
Q 3366 2406 3366 1850 
L 3366 331 
L 3866 331 
L 3866 0 
L 2291 0 
L 2291 331 
L 2791 331 
L 2791 2069 
Q 2791 2566 2641 2777 
Q 2491 2988 2144 2988 
Q 1759 2988 1557 2697 
Q 1356 2406 1356 1850 
L 1356 331 
L 1856 331 
L 1856 0 
L 263 0 
L 263 331 
L 781 331 
L 781 2994 
L 231 2994 
L 231 3322 
L 1356 3322 
L 1356 2731 
Q 1516 3063 1762 3238 
Q 2009 3413 2322 3413 
Q 2709 3413 2968 3220 
Q 3228 3028 3316 2675 
z
" transform="scale(0.015625)"/>
       <path id="STIXSizeOneSym-Regular-221a" d="M 6970 9933 
L 3373 -1888 
L 3104 -1888 
L 1626 2918 
Q 1555 3149 1465 3251 
Q 1376 3354 1229 3354 
Q 1011 3354 794 3181 
L 717 3309 
L 1766 4115 
L 1926 4115 
L 3379 -602 
L 3405 -602 
L 6605 9933 
L 6970 9933 
z
" transform="scale(0.015625)"/>
       <path id="DejaVuSans-Oblique-67" d="M 3816 3500 
L 3219 434 
Q 3047 -456 2561 -893 
Q 2075 -1331 1253 -1331 
Q 950 -1331 690 -1286 
Q 431 -1241 206 -1147 
L 313 -588 
Q 525 -725 762 -790 
Q 1000 -856 1269 -856 
Q 1816 -856 2167 -557 
Q 2519 -259 2631 300 
L 2681 563 
Q 2441 288 2122 144 
Q 1803 0 1434 0 
Q 903 0 598 351 
Q 294 703 294 1319 
Q 294 1803 478 2267 
Q 663 2731 997 3091 
Q 1219 3328 1514 3456 
Q 1809 3584 2131 3584 
Q 2484 3584 2746 3420 
Q 3009 3256 3138 2956 
L 3238 3500 
L 3816 3500 
z
M 2950 2216 
Q 2950 2641 2750 2872 
Q 2550 3103 2181 3103 
Q 1953 3103 1747 3012 
Q 1541 2922 1394 2759 
Q 1156 2491 1023 2127 
Q 891 1763 891 1375 
Q 891 944 1092 712 
Q 1294 481 1672 481 
Q 2219 481 2584 976 
Q 2950 1472 2950 2216 
z
" transform="scale(0.015625)"/>
       <path id="DejaVuSans-Oblique-74" d="M 2706 3500 
L 2619 3053 
L 1472 3053 
L 1100 1153 
Q 1081 1047 1072 975 
Q 1063 903 1063 863 
Q 1063 663 1183 572 
Q 1303 481 1569 481 
L 2150 481 
L 2053 0 
L 1503 0 
Q 991 0 739 200 
Q 488 400 488 806 
Q 488 878 497 964 
Q 506 1050 525 1153 
L 897 3053 
L 409 3053 
L 500 3500 
L 978 3500 
L 1172 4494 
L 1747 4494 
L 1556 3500 
L 2706 3500 
z
" transform="scale(0.015625)"/>
      </defs>
      <use xlink:href="#DejaVuSerif-74" transform="translate(0 0.203125)"/>
      <use xlink:href="#DejaVuSerif-72" transform="translate(40.185547 0.203125)"/>
      <use xlink:href="#DejaVuSerif-61" transform="translate(87.988281 0.203125)"/>
      <use xlink:href="#DejaVuSerif-76" transform="translate(147.607422 0.203125)"/>
      <use xlink:href="#DejaVuSerif-65" transform="translate(204.101562 0.203125)"/>
      <use xlink:href="#DejaVuSerif-6c" transform="translate(263.28125 0.203125)"/>
      <use xlink:href="#DejaVuSerif-20" transform="translate(295.263672 0.203125)"/>
      <use xlink:href="#DejaVuSerif-74" transform="translate(327.050781 0.203125)"/>
      <use xlink:href="#DejaVuSerif-69" transform="translate(367.236328 0.203125)"/>
      <use xlink:href="#DejaVuSerif-6d" transform="translate(399.21875 0.203125)"/>
      <use xlink:href="#DejaVuSerif-65" transform="translate(494.042969 0.203125)"/>
      <use xlink:href="#DejaVuSerif-20" transform="translate(553.222656 0.203125)"/>
      <use xlink:href="#STIXSizeOneSym-Regular-221a" transform="translate(585.009766 -0.53125) scale(0.683614)"/>
      <use xlink:href="#DejaVuSans-32" transform="translate(669.78212 0.53125)"/>
      <use xlink:href="#DejaVuSans-Oblique-67" transform="translate(733.405167 0.53125)"/>
      <use xlink:href="#DejaVuSans-Oblique-74" transform="translate(809.381729 0.203125)"/>
      <path d="M 657.28212 98.5 
L 657.28212 104.75 
L 809.381729 104.75 
L 809.381729 98.5 
L 657.28212 98.5 
z
"/>
     </g>
    </g>
   </g>
   <g id="line2d_9">
    <path d="M 62.198956 57.435433 
L 77.463119 86.299139 
L 92.727282 104.781283 
L 107.991446 123.199109 
L 123.255609 132.68367 
L 138.519772 138.321803 
L 153.783935 143.613081 
L 169.048098 137.500604 
L 184.312261 154.920358 
L 199.576425 161.107489 
L 214.840588 168.139938 
L 230.104751 169.289616 
L 245.368914 185.211687 
L 260.633077 194.935141 
L 275.89724 210.496574 
L 291.161404 176.954905 
L 306.425567 189.895392 
L 321.68973 200.497472 
L 336.953893 211.414249 
L 352.218056 222.448176 
L 367.482219 234.743189 
L 382.746383 245.584164 
L 398.010546 260.12685 
L 413.274709 273.747266 
" clip-path="url(#p74dc3adf8a)" style="fill: none; stroke: #000000; stroke-width: 1.5; stroke-linecap: square"/>
   </g>
   <g id="line2d_10">
    <defs>
     <path id="mef8563d800" d="M -0 5.303301 
L 3.181981 0 
L 0 -5.303301 
L -3.181981 -0 
z
" style="stroke: #ffffff; stroke-linejoin: miter"/>
    </defs>
    <g clip-path="url(#p74dc3adf8a)">
     <use xlink:href="#mef8563d800" x="62.198956" y="57.435433" style="fill: #ffffff; stroke: #ffffff; stroke-linejoin: miter"/>
     <use xlink:href="#mef8563d800" x="77.463119" y="86.299139" style="fill: #ffffff; stroke: #ffffff; stroke-linejoin: miter"/>
     <use xlink:href="#mef8563d800" x="92.727282" y="104.781283" style="fill: #ffffff; stroke: #ffffff; stroke-linejoin: miter"/>
     <use xlink:href="#mef8563d800" x="107.991446" y="123.199109" style="fill: #ffffff; stroke: #ffffff; stroke-linejoin: miter"/>
     <use xlink:href="#mef8563d800" x="123.255609" y="132.68367" style="fill: #ffffff; stroke: #ffffff; stroke-linejoin: miter"/>
     <use xlink:href="#mef8563d800" x="138.519772" y="138.321803" style="fill: #ffffff; stroke: #ffffff; stroke-linejoin: miter"/>
     <use xlink:href="#mef8563d800" x="153.783935" y="143.613081" style="fill: #ffffff; stroke: #ffffff; stroke-linejoin: miter"/>
     <use xlink:href="#mef8563d800" x="169.048098" y="137.500604" style="fill: #ffffff; stroke: #ffffff; stroke-linejoin: miter"/>
     <use xlink:href="#mef8563d800" x="184.312261" y="154.920358" style="fill: #ffffff; stroke: #ffffff; stroke-linejoin: miter"/>
     <use xlink:href="#mef8563d800" x="199.576425" y="161.107489" style="fill: #ffffff; stroke: #ffffff; stroke-linejoin: miter"/>
     <use xlink:href="#mef8563d800" x="214.840588" y="168.139938" style="fill: #ffffff; stroke: #ffffff; stroke-linejoin: miter"/>
     <use xlink:href="#mef8563d800" x="230.104751" y="169.289616" style="fill: #ffffff; stroke: #ffffff; stroke-linejoin: miter"/>
     <use xlink:href="#mef8563d800" x="245.368914" y="185.211687" style="fill: #ffffff; stroke: #ffffff; stroke-linejoin: miter"/>
     <use xlink:href="#mef8563d800" x="260.633077" y="194.935141" style="fill: #ffffff; stroke: #ffffff; stroke-linejoin: miter"/>
     <use xlink:href="#mef8563d800" x="275.89724" y="210.496574" style="fill: #ffffff; stroke: #ffffff; stroke-linejoin: miter"/>
     <use xlink:href="#mef8563d800" x="291.161404" y="176.954905" style="fill: #ffffff; stroke: #ffffff; stroke-linejoin: miter"/>
     <use xlink:href="#mef8563d800" x="306.425567" y="189.895392" style="fill: #ffffff; stroke: #ffffff; stroke-linejoin: miter"/>
     <use xlink:href="#mef8563d800" x="321.68973" y="200.497472" style="fill: #ffffff; stroke: #ffffff; stroke-linejoin: miter"/>
     <use xlink:href="#mef8563d800" x="336.953893" y="211.414249" style="fill: #ffffff; stroke: #ffffff; stroke-linejoin: miter"/>
     <use xlink:href="#mef8563d800" x="352.218056" y="222.448176" style="fill: #ffffff; stroke: #ffffff; stroke-linejoin: miter"/>
     <use xlink:href="#mef8563d800" x="367.482219" y="234.743189" style="fill: #ffffff; stroke: #ffffff; stroke-linejoin: miter"/>
     <use xlink:href="#mef8563d800" x="382.746383" y="245.584164" style="fill: #ffffff; stroke: #ffffff; stroke-linejoin: miter"/>
     <use xlink:href="#mef8563d800" x="398.010546" y="260.12685" style="fill: #ffffff; stroke: #ffffff; stroke-linejoin: miter"/>
     <use xlink:href="#mef8563d800" x="413.274709" y="273.747266" style="fill: #ffffff; stroke: #ffffff; stroke-linejoin: miter"/>
    </g>
   </g>
   <g id="line2d_11">
    <defs>
     <path id="m270ce3e9e6" d="M -0 2.474874 
L 1.484924 0 
L 0 -2.474874 
L -1.484924 -0 
z
" style="stroke: #000000; stroke-linejoin: miter"/>
    </defs>
    <g clip-path="url(#p74dc3adf8a)">
     <use xlink:href="#m270ce3e9e6" x="62.198956" y="57.435433" style="stroke: #000000; stroke-linejoin: miter"/>
     <use xlink:href="#m270ce3e9e6" x="77.463119" y="86.299139" style="stroke: #000000; stroke-linejoin: miter"/>
     <use xlink:href="#m270ce3e9e6" x="92.727282" y="104.781283" style="stroke: #000000; stroke-linejoin: miter"/>
     <use xlink:href="#m270ce3e9e6" x="107.991446" y="123.199109" style="stroke: #000000; stroke-linejoin: miter"/>
     <use xlink:href="#m270ce3e9e6" x="123.255609" y="132.68367" style="stroke: #000000; stroke-linejoin: miter"/>
     <use xlink:href="#m270ce3e9e6" x="138.519772" y="138.321803" style="stroke: #000000; stroke-linejoin: miter"/>
     <use xlink:href="#m270ce3e9e6" x="153.783935" y="143.613081" style="stroke: #000000; stroke-linejoin: miter"/>
     <use xlink:href="#m270ce3e9e6" x="169.048098" y="137.500604" style="stroke: #000000; stroke-linejoin: miter"/>
     <use xlink:href="#m270ce3e9e6" x="184.312261" y="154.920358" style="stroke: #000000; stroke-linejoin: miter"/>
     <use xlink:href="#m270ce3e9e6" x="199.576425" y="161.107489" style="stroke: #000000; stroke-linejoin: miter"/>
     <use xlink:href="#m270ce3e9e6" x="214.840588" y="168.139938" style="stroke: #000000; stroke-linejoin: miter"/>
     <use xlink:href="#m270ce3e9e6" x="230.104751" y="169.289616" style="stroke: #000000; stroke-linejoin: miter"/>
     <use xlink:href="#m270ce3e9e6" x="245.368914" y="185.211687" style="stroke: #000000; stroke-linejoin: miter"/>
     <use xlink:href="#m270ce3e9e6" x="260.633077" y="194.935141" style="stroke: #000000; stroke-linejoin: miter"/>
     <use xlink:href="#m270ce3e9e6" x="275.89724" y="210.496574" style="stroke: #000000; stroke-linejoin: miter"/>
     <use xlink:href="#m270ce3e9e6" x="291.161404" y="176.954905" style="stroke: #000000; stroke-linejoin: miter"/>
     <use xlink:href="#m270ce3e9e6" x="306.425567" y="189.895392" style="stroke: #000000; stroke-linejoin: miter"/>
     <use xlink:href="#m270ce3e9e6" x="321.68973" y="200.497472" style="stroke: #000000; stroke-linejoin: miter"/>
     <use xlink:href="#m270ce3e9e6" x="336.953893" y="211.414249" style="stroke: #000000; stroke-linejoin: miter"/>
     <use xlink:href="#m270ce3e9e6" x="352.218056" y="222.448176" style="stroke: #000000; stroke-linejoin: miter"/>
     <use xlink:href="#m270ce3e9e6" x="367.482219" y="234.743189" style="stroke: #000000; stroke-linejoin: miter"/>
     <use xlink:href="#m270ce3e9e6" x="382.746383" y="245.584164" style="stroke: #000000; stroke-linejoin: miter"/>
     <use xlink:href="#m270ce3e9e6" x="398.010546" y="260.12685" style="stroke: #000000; stroke-linejoin: miter"/>
     <use xlink:href="#m270ce3e9e6" x="413.274709" y="273.747266" style="stroke: #000000; stroke-linejoin: miter"/>
    </g>
   </g>
   <g id="line2d_12">
    <path d="M 62.198956 30.894055 
L 77.932786 57.360779 
L 93.666616 72.884309 
L 109.400445 86.060245 
L 125.134275 92.539102 
L 140.868105 91.727092 
L 156.601934 97.313541 
L 172.335764 99.261448 
L 188.069594 101.186384 
L 203.803424 102.834525 
L 219.537253 104.831818 
L 235.271083 106.716556 
L 251.004913 108.595551 
L 266.738743 110.67439 
L 282.472572 112.476434 
L 298.206402 115.267362 
L 313.940232 117.979041 
L 329.674061 120.851514 
L 345.407891 124.274133 
L 361.141721 128.060837 
L 376.875551 132.626243 
L 392.60938 117.355389 
L 408.34321 117.802167 
" clip-path="url(#p74dc3adf8a)" style="fill: none; stroke: #000000; stroke-width: 1.5; stroke-linecap: square"/>
   </g>
   <g id="line2d_13">
    <defs>
     <path id="mcc72c6e5a1" d="M 0 3.75 
C 0.994512 3.75 1.948425 3.354876 2.65165 2.65165 
C 3.354876 1.948425 3.75 0.994512 3.75 0 
C 3.75 -0.994512 3.354876 -1.948425 2.65165 -2.65165 
C 1.948425 -3.354876 0.994512 -3.75 0 -3.75 
C -0.994512 -3.75 -1.948425 -3.354876 -2.65165 -2.65165 
C -3.354876 -1.948425 -3.75 -0.994512 -3.75 0 
C -3.75 0.994512 -3.354876 1.948425 -2.65165 2.65165 
C -1.948425 3.354876 -0.994512 3.75 0 3.75 
z
" style="stroke: #ffffff"/>
    </defs>
    <g clip-path="url(#p74dc3adf8a)">
     <use xlink:href="#mcc72c6e5a1" x="62.198956" y="30.894055" style="fill: #ffffff; stroke: #ffffff"/>
     <use xlink:href="#mcc72c6e5a1" x="77.932786" y="57.360779" style="fill: #ffffff; stroke: #ffffff"/>
     <use xlink:href="#mcc72c6e5a1" x="93.666616" y="72.884309" style="fill: #ffffff; stroke: #ffffff"/>
     <use xlink:href="#mcc72c6e5a1" x="109.400445" y="86.060245" style="fill: #ffffff; stroke: #ffffff"/>
     <use xlink:href="#mcc72c6e5a1" x="125.134275" y="92.539102" style="fill: #ffffff; stroke: #ffffff"/>
     <use xlink:href="#mcc72c6e5a1" x="140.868105" y="91.727092" style="fill: #ffffff; stroke: #ffffff"/>
     <use xlink:href="#mcc72c6e5a1" x="156.601934" y="97.313541" style="fill: #ffffff; stroke: #ffffff"/>
     <use xlink:href="#mcc72c6e5a1" x="172.335764" y="99.261448" style="fill: #ffffff; stroke: #ffffff"/>
     <use xlink:href="#mcc72c6e5a1" x="188.069594" y="101.186384" style="fill: #ffffff; stroke: #ffffff"/>
     <use xlink:href="#mcc72c6e5a1" x="203.803424" y="102.834525" style="fill: #ffffff; stroke: #ffffff"/>
     <use xlink:href="#mcc72c6e5a1" x="219.537253" y="104.831818" style="fill: #ffffff; stroke: #ffffff"/>
     <use xlink:href="#mcc72c6e5a1" x="235.271083" y="106.716556" style="fill: #ffffff; stroke: #ffffff"/>
     <use xlink:href="#mcc72c6e5a1" x="251.004913" y="108.595551" style="fill: #ffffff; stroke: #ffffff"/>
     <use xlink:href="#mcc72c6e5a1" x="266.738743" y="110.67439" style="fill: #ffffff; stroke: #ffffff"/>
     <use xlink:href="#mcc72c6e5a1" x="282.472572" y="112.476434" style="fill: #ffffff; stroke: #ffffff"/>
     <use xlink:href="#mcc72c6e5a1" x="298.206402" y="115.267362" style="fill: #ffffff; stroke: #ffffff"/>
     <use xlink:href="#mcc72c6e5a1" x="313.940232" y="117.979041" style="fill: #ffffff; stroke: #ffffff"/>
     <use xlink:href="#mcc72c6e5a1" x="329.674061" y="120.851514" style="fill: #ffffff; stroke: #ffffff"/>
     <use xlink:href="#mcc72c6e5a1" x="345.407891" y="124.274133" style="fill: #ffffff; stroke: #ffffff"/>
     <use xlink:href="#mcc72c6e5a1" x="361.141721" y="128.060837" style="fill: #ffffff; stroke: #ffffff"/>
     <use xlink:href="#mcc72c6e5a1" x="376.875551" y="132.626243" style="fill: #ffffff; stroke: #ffffff"/>
     <use xlink:href="#mcc72c6e5a1" x="392.60938" y="117.355389" style="fill: #ffffff; stroke: #ffffff"/>
     <use xlink:href="#mcc72c6e5a1" x="408.34321" y="117.802167" style="fill: #ffffff; stroke: #ffffff"/>
    </g>
   </g>
   <g id="line2d_14">
    <defs>
     <path id="m8fd083ffbf" d="M 0 1.75 
C 0.464105 1.75 0.909265 1.565609 1.237437 1.237437 
C 1.565609 0.909265 1.75 0.464105 1.75 0 
C 1.75 -0.464105 1.565609 -0.909265 1.237437 -1.237437 
C 0.909265 -1.565609 0.464105 -1.75 0 -1.75 
C -0.464105 -1.75 -0.909265 -1.565609 -1.237437 -1.237437 
C -1.565609 -0.909265 -1.75 -0.464105 -1.75 0 
C -1.75 0.464105 -1.565609 0.909265 -1.237437 1.237437 
C -0.909265 1.565609 -0.464105 1.75 0 1.75 
z
" style="stroke: #000000"/>
    </defs>
    <g clip-path="url(#p74dc3adf8a)">
     <use xlink:href="#m8fd083ffbf" x="62.198956" y="30.894055" style="stroke: #000000"/>
     <use xlink:href="#m8fd083ffbf" x="77.932786" y="57.360779" style="stroke: #000000"/>
     <use xlink:href="#m8fd083ffbf" x="93.666616" y="72.884309" style="stroke: #000000"/>
     <use xlink:href="#m8fd083ffbf" x="109.400445" y="86.060245" style="stroke: #000000"/>
     <use xlink:href="#m8fd083ffbf" x="125.134275" y="92.539102" style="stroke: #000000"/>
     <use xlink:href="#m8fd083ffbf" x="140.868105" y="91.727092" style="stroke: #000000"/>
     <use xlink:href="#m8fd083ffbf" x="156.601934" y="97.313541" style="stroke: #000000"/>
     <use xlink:href="#m8fd083ffbf" x="172.335764" y="99.261448" style="stroke: #000000"/>
     <use xlink:href="#m8fd083ffbf" x="188.069594" y="101.186384" style="stroke: #000000"/>
     <use xlink:href="#m8fd083ffbf" x="203.803424" y="102.834525" style="stroke: #000000"/>
     <use xlink:href="#m8fd083ffbf" x="219.537253" y="104.831818" style="stroke: #000000"/>
     <use xlink:href="#m8fd083ffbf" x="235.271083" y="106.716556" style="stroke: #000000"/>
     <use xlink:href="#m8fd083ffbf" x="251.004913" y="108.595551" style="stroke: #000000"/>
     <use xlink:href="#m8fd083ffbf" x="266.738743" y="110.67439" style="stroke: #000000"/>
     <use xlink:href="#m8fd083ffbf" x="282.472572" y="112.476434" style="stroke: #000000"/>
     <use xlink:href="#m8fd083ffbf" x="298.206402" y="115.267362" style="stroke: #000000"/>
     <use xlink:href="#m8fd083ffbf" x="313.940232" y="117.979041" style="stroke: #000000"/>
     <use xlink:href="#m8fd083ffbf" x="329.674061" y="120.851514" style="stroke: #000000"/>
     <use xlink:href="#m8fd083ffbf" x="345.407891" y="124.274133" style="stroke: #000000"/>
     <use xlink:href="#m8fd083ffbf" x="361.141721" y="128.060837" style="stroke: #000000"/>
     <use xlink:href="#m8fd083ffbf" x="376.875551" y="132.626243" style="stroke: #000000"/>
     <use xlink:href="#m8fd083ffbf" x="392.60938" y="117.355389" style="stroke: #000000"/>
     <use xlink:href="#m8fd083ffbf" x="408.34321" y="117.802167" style="stroke: #000000"/>
    </g>
   </g>
   <g id="line2d_15">
    <path d="M 62.198956 17.633128 
L 77.463119 42.061211 
L 92.727282 56.262784 
L 107.991446 66.342283 
L 123.255609 72.962409 
L 138.519772 74.905722 
L 153.783935 76.14154 
L 169.048098 77.224604 
L 184.312261 78.169844 
L 199.576425 79.063401 
L 214.840588 79.576793 
L 230.104751 80.615064 
L 245.368914 81.330599 
L 260.633077 81.897972 
L 275.89724 82.66519 
L 291.161404 83.329041 
L 306.425567 83.956138 
L 321.68973 84.640662 
L 336.953893 85.32174 
L 352.218056 85.985591 
L 367.482219 86.708016 
L 382.746383 87.463749 
L 398.010546 88.225224 
L 413.274709 89.076285 
" clip-path="url(#p74dc3adf8a)" style="fill: none; stroke: #000000; stroke-width: 1.5; stroke-linecap: square"/>
   </g>
   <g id="line2d_16">
    <defs>
     <path id="m9289ba27b6" d="M -3.75 3.75 
L 3.75 3.75 
L 3.75 -3.75 
L -3.75 -3.75 
z
" style="stroke: #ffffff; stroke-linejoin: miter"/>
    </defs>
    <g clip-path="url(#p74dc3adf8a)">
     <use xlink:href="#m9289ba27b6" x="62.198956" y="17.633128" style="fill: #ffffff; stroke: #ffffff; stroke-linejoin: miter"/>
     <use xlink:href="#m9289ba27b6" x="77.463119" y="42.061211" style="fill: #ffffff; stroke: #ffffff; stroke-linejoin: miter"/>
     <use xlink:href="#m9289ba27b6" x="92.727282" y="56.262784" style="fill: #ffffff; stroke: #ffffff; stroke-linejoin: miter"/>
     <use xlink:href="#m9289ba27b6" x="107.991446" y="66.342283" style="fill: #ffffff; stroke: #ffffff; stroke-linejoin: miter"/>
     <use xlink:href="#m9289ba27b6" x="123.255609" y="72.962409" style="fill: #ffffff; stroke: #ffffff; stroke-linejoin: miter"/>
     <use xlink:href="#m9289ba27b6" x="138.519772" y="74.905722" style="fill: #ffffff; stroke: #ffffff; stroke-linejoin: miter"/>
     <use xlink:href="#m9289ba27b6" x="153.783935" y="76.14154" style="fill: #ffffff; stroke: #ffffff; stroke-linejoin: miter"/>
     <use xlink:href="#m9289ba27b6" x="169.048098" y="77.224604" style="fill: #ffffff; stroke: #ffffff; stroke-linejoin: miter"/>
     <use xlink:href="#m9289ba27b6" x="184.312261" y="78.169844" style="fill: #ffffff; stroke: #ffffff; stroke-linejoin: miter"/>
     <use xlink:href="#m9289ba27b6" x="199.576425" y="79.063401" style="fill: #ffffff; stroke: #ffffff; stroke-linejoin: miter"/>
     <use xlink:href="#m9289ba27b6" x="214.840588" y="79.576793" style="fill: #ffffff; stroke: #ffffff; stroke-linejoin: miter"/>
     <use xlink:href="#m9289ba27b6" x="230.104751" y="80.615064" style="fill: #ffffff; stroke: #ffffff; stroke-linejoin: miter"/>
     <use xlink:href="#m9289ba27b6" x="245.368914" y="81.330599" style="fill: #ffffff; stroke: #ffffff; stroke-linejoin: miter"/>
     <use xlink:href="#m9289ba27b6" x="260.633077" y="81.897972" style="fill: #ffffff; stroke: #ffffff; stroke-linejoin: miter"/>
     <use xlink:href="#m9289ba27b6" x="275.89724" y="82.66519" style="fill: #ffffff; stroke: #ffffff; stroke-linejoin: miter"/>
     <use xlink:href="#m9289ba27b6" x="291.161404" y="83.329041" style="fill: #ffffff; stroke: #ffffff; stroke-linejoin: miter"/>
     <use xlink:href="#m9289ba27b6" x="306.425567" y="83.956138" style="fill: #ffffff; stroke: #ffffff; stroke-linejoin: miter"/>
     <use xlink:href="#m9289ba27b6" x="321.68973" y="84.640662" style="fill: #ffffff; stroke: #ffffff; stroke-linejoin: miter"/>
     <use xlink:href="#m9289ba27b6" x="336.953893" y="85.32174" style="fill: #ffffff; stroke: #ffffff; stroke-linejoin: miter"/>
     <use xlink:href="#m9289ba27b6" x="352.218056" y="85.985591" style="fill: #ffffff; stroke: #ffffff; stroke-linejoin: miter"/>
     <use xlink:href="#m9289ba27b6" x="367.482219" y="86.708016" style="fill: #ffffff; stroke: #ffffff; stroke-linejoin: miter"/>
     <use xlink:href="#m9289ba27b6" x="382.746383" y="87.463749" style="fill: #ffffff; stroke: #ffffff; stroke-linejoin: miter"/>
     <use xlink:href="#m9289ba27b6" x="398.010546" y="88.225224" style="fill: #ffffff; stroke: #ffffff; stroke-linejoin: miter"/>
     <use xlink:href="#m9289ba27b6" x="413.274709" y="89.076285" style="fill: #ffffff; stroke: #ffffff; stroke-linejoin: miter"/>
    </g>
   </g>
   <g id="line2d_17">
    <defs>
     <path id="mcd9e00264b" d="M -1.75 1.75 
L 1.75 1.75 
L 1.75 -1.75 
L -1.75 -1.75 
z
" style="stroke: #000000; stroke-linejoin: miter"/>
    </defs>
    <g clip-path="url(#p74dc3adf8a)">
     <use xlink:href="#mcd9e00264b" x="62.198956" y="17.633128" style="stroke: #000000; stroke-linejoin: miter"/>
     <use xlink:href="#mcd9e00264b" x="77.463119" y="42.061211" style="stroke: #000000; stroke-linejoin: miter"/>
     <use xlink:href="#mcd9e00264b" x="92.727282" y="56.262784" style="stroke: #000000; stroke-linejoin: miter"/>
     <use xlink:href="#mcd9e00264b" x="107.991446" y="66.342283" style="stroke: #000000; stroke-linejoin: miter"/>
     <use xlink:href="#mcd9e00264b" x="123.255609" y="72.962409" style="stroke: #000000; stroke-linejoin: miter"/>
     <use xlink:href="#mcd9e00264b" x="138.519772" y="74.905722" style="stroke: #000000; stroke-linejoin: miter"/>
     <use xlink:href="#mcd9e00264b" x="153.783935" y="76.14154" style="stroke: #000000; stroke-linejoin: miter"/>
     <use xlink:href="#mcd9e00264b" x="169.048098" y="77.224604" style="stroke: #000000; stroke-linejoin: miter"/>
     <use xlink:href="#mcd9e00264b" x="184.312261" y="78.169844" style="stroke: #000000; stroke-linejoin: miter"/>
     <use xlink:href="#mcd9e00264b" x="199.576425" y="79.063401" style="stroke: #000000; stroke-linejoin: miter"/>
     <use xlink:href="#mcd9e00264b" x="214.840588" y="79.576793" style="stroke: #000000; stroke-linejoin: miter"/>
     <use xlink:href="#mcd9e00264b" x="230.104751" y="80.615064" style="stroke: #000000; stroke-linejoin: miter"/>
     <use xlink:href="#mcd9e00264b" x="245.368914" y="81.330599" style="stroke: #000000; stroke-linejoin: miter"/>
     <use xlink:href="#mcd9e00264b" x="260.633077" y="81.897972" style="stroke: #000000; stroke-linejoin: miter"/>
     <use xlink:href="#mcd9e00264b" x="275.89724" y="82.66519" style="stroke: #000000; stroke-linejoin: miter"/>
     <use xlink:href="#mcd9e00264b" x="291.161404" y="83.329041" style="stroke: #000000; stroke-linejoin: miter"/>
     <use xlink:href="#mcd9e00264b" x="306.425567" y="83.956138" style="stroke: #000000; stroke-linejoin: miter"/>
     <use xlink:href="#mcd9e00264b" x="321.68973" y="84.640662" style="stroke: #000000; stroke-linejoin: miter"/>
     <use xlink:href="#mcd9e00264b" x="336.953893" y="85.32174" style="stroke: #000000; stroke-linejoin: miter"/>
     <use xlink:href="#mcd9e00264b" x="352.218056" y="85.985591" style="stroke: #000000; stroke-linejoin: miter"/>
     <use xlink:href="#mcd9e00264b" x="367.482219" y="86.708016" style="stroke: #000000; stroke-linejoin: miter"/>
     <use xlink:href="#mcd9e00264b" x="382.746383" y="87.463749" style="stroke: #000000; stroke-linejoin: miter"/>
     <use xlink:href="#mcd9e00264b" x="398.010546" y="88.225224" style="stroke: #000000; stroke-linejoin: miter"/>
     <use xlink:href="#mcd9e00264b" x="413.274709" y="89.076285" style="stroke: #000000; stroke-linejoin: miter"/>
    </g>
   </g>
   <g id="line2d_18">
    <path d="M 62.198956 10.999219 
L 77.463119 34.753115 
L 92.727282 48.349413 
L 107.991446 57.395235 
L 123.255609 63.653574 
L 138.519772 65.292526 
L 153.783935 66.006912 
L 169.048098 67.022213 
L 184.312261 67.711331 
L 199.576425 68.309715 
L 214.840588 68.861009 
L 230.104751 69.262994 
L 245.368914 69.778684 
L 260.633077 70.186413 
L 275.89724 70.545902 
L 291.161404 70.908838 
L 306.425567 71.247654 
L 321.68973 71.225832 
L 336.953893 71.8759 
L 352.218056 72.181409 
L 367.482219 72.337609 
L 382.746383 72.754526 
L 398.010546 73.039361 
L 413.274709 73.267918 
" clip-path="url(#p74dc3adf8a)" style="fill: none; stroke: #000000; stroke-width: 1.5; stroke-linecap: square"/>
   </g>
   <g id="line2d_19">
    <defs>
     <path id="mf6761de9ff" d="M 0 -3.75 
L -3.75 3.75 
L 3.75 3.75 
z
" style="stroke: #ffffff; stroke-linejoin: miter"/>
    </defs>
    <g clip-path="url(#p74dc3adf8a)">
     <use xlink:href="#mf6761de9ff" x="62.198956" y="10.999219" style="fill: #ffffff; stroke: #ffffff; stroke-linejoin: miter"/>
     <use xlink:href="#mf6761de9ff" x="77.463119" y="34.753115" style="fill: #ffffff; stroke: #ffffff; stroke-linejoin: miter"/>
     <use xlink:href="#mf6761de9ff" x="92.727282" y="48.349413" style="fill: #ffffff; stroke: #ffffff; stroke-linejoin: miter"/>
     <use xlink:href="#mf6761de9ff" x="107.991446" y="57.395235" style="fill: #ffffff; stroke: #ffffff; stroke-linejoin: miter"/>
     <use xlink:href="#mf6761de9ff" x="123.255609" y="63.653574" style="fill: #ffffff; stroke: #ffffff; stroke-linejoin: miter"/>
     <use xlink:href="#mf6761de9ff" x="138.519772" y="65.292526" style="fill: #ffffff; stroke: #ffffff; stroke-linejoin: miter"/>
     <use xlink:href="#mf6761de9ff" x="153.783935" y="66.006912" style="fill: #ffffff; stroke: #ffffff; stroke-linejoin: miter"/>
     <use xlink:href="#mf6761de9ff" x="169.048098" y="67.022213" style="fill: #ffffff; stroke: #ffffff; stroke-linejoin: miter"/>
     <use xlink:href="#mf6761de9ff" x="184.312261" y="67.711331" style="fill: #ffffff; stroke: #ffffff; stroke-linejoin: miter"/>
     <use xlink:href="#mf6761de9ff" x="199.576425" y="68.309715" style="fill: #ffffff; stroke: #ffffff; stroke-linejoin: miter"/>
     <use xlink:href="#mf6761de9ff" x="214.840588" y="68.861009" style="fill: #ffffff; stroke: #ffffff; stroke-linejoin: miter"/>
     <use xlink:href="#mf6761de9ff" x="230.104751" y="69.262994" style="fill: #ffffff; stroke: #ffffff; stroke-linejoin: miter"/>
     <use xlink:href="#mf6761de9ff" x="245.368914" y="69.778684" style="fill: #ffffff; stroke: #ffffff; stroke-linejoin: miter"/>
     <use xlink:href="#mf6761de9ff" x="260.633077" y="70.186413" style="fill: #ffffff; stroke: #ffffff; stroke-linejoin: miter"/>
     <use xlink:href="#mf6761de9ff" x="275.89724" y="70.545902" style="fill: #ffffff; stroke: #ffffff; stroke-linejoin: miter"/>
     <use xlink:href="#mf6761de9ff" x="291.161404" y="70.908838" style="fill: #ffffff; stroke: #ffffff; stroke-linejoin: miter"/>
     <use xlink:href="#mf6761de9ff" x="306.425567" y="71.247654" style="fill: #ffffff; stroke: #ffffff; stroke-linejoin: miter"/>
     <use xlink:href="#mf6761de9ff" x="321.68973" y="71.225832" style="fill: #ffffff; stroke: #ffffff; stroke-linejoin: miter"/>
     <use xlink:href="#mf6761de9ff" x="336.953893" y="71.8759" style="fill: #ffffff; stroke: #ffffff; stroke-linejoin: miter"/>
     <use xlink:href="#mf6761de9ff" x="352.218056" y="72.181409" style="fill: #ffffff; stroke: #ffffff; stroke-linejoin: miter"/>
     <use xlink:href="#mf6761de9ff" x="367.482219" y="72.337609" style="fill: #ffffff; stroke: #ffffff; stroke-linejoin: miter"/>
     <use xlink:href="#mf6761de9ff" x="382.746383" y="72.754526" style="fill: #ffffff; stroke: #ffffff; stroke-linejoin: miter"/>
     <use xlink:href="#mf6761de9ff" x="398.010546" y="73.039361" style="fill: #ffffff; stroke: #ffffff; stroke-linejoin: miter"/>
     <use xlink:href="#mf6761de9ff" x="413.274709" y="73.267918" style="fill: #ffffff; stroke: #ffffff; stroke-linejoin: miter"/>
    </g>
   </g>
   <g id="line2d_20">
    <defs>
     <path id="m7808928c8f" d="M 0 -1.75 
L -1.75 1.75 
L 1.75 1.75 
z
" style="stroke: #000000; stroke-linejoin: miter"/>
    </defs>
    <g clip-path="url(#p74dc3adf8a)">
     <use xlink:href="#m7808928c8f" x="62.198956" y="10.999219" style="stroke: #000000; stroke-linejoin: miter"/>
     <use xlink:href="#m7808928c8f" x="77.463119" y="34.753115" style="stroke: #000000; stroke-linejoin: miter"/>
     <use xlink:href="#m7808928c8f" x="92.727282" y="48.349413" style="stroke: #000000; stroke-linejoin: miter"/>
     <use xlink:href="#m7808928c8f" x="107.991446" y="57.395235" style="stroke: #000000; stroke-linejoin: miter"/>
     <use xlink:href="#m7808928c8f" x="123.255609" y="63.653574" style="stroke: #000000; stroke-linejoin: miter"/>
     <use xlink:href="#m7808928c8f" x="138.519772" y="65.292526" style="stroke: #000000; stroke-linejoin: miter"/>
     <use xlink:href="#m7808928c8f" x="153.783935" y="66.006912" style="stroke: #000000; stroke-linejoin: miter"/>
     <use xlink:href="#m7808928c8f" x="169.048098" y="67.022213" style="stroke: #000000; stroke-linejoin: miter"/>
     <use xlink:href="#m7808928c8f" x="184.312261" y="67.711331" style="stroke: #000000; stroke-linejoin: miter"/>
     <use xlink:href="#m7808928c8f" x="199.576425" y="68.309715" style="stroke: #000000; stroke-linejoin: miter"/>
     <use xlink:href="#m7808928c8f" x="214.840588" y="68.861009" style="stroke: #000000; stroke-linejoin: miter"/>
     <use xlink:href="#m7808928c8f" x="230.104751" y="69.262994" style="stroke: #000000; stroke-linejoin: miter"/>
     <use xlink:href="#m7808928c8f" x="245.368914" y="69.778684" style="stroke: #000000; stroke-linejoin: miter"/>
     <use xlink:href="#m7808928c8f" x="260.633077" y="70.186413" style="stroke: #000000; stroke-linejoin: miter"/>
     <use xlink:href="#m7808928c8f" x="275.89724" y="70.545902" style="stroke: #000000; stroke-linejoin: miter"/>
     <use xlink:href="#m7808928c8f" x="291.161404" y="70.908838" style="stroke: #000000; stroke-linejoin: miter"/>
     <use xlink:href="#m7808928c8f" x="306.425567" y="71.247654" style="stroke: #000000; stroke-linejoin: miter"/>
     <use xlink:href="#m7808928c8f" x="321.68973" y="71.225832" style="stroke: #000000; stroke-linejoin: miter"/>
     <use xlink:href="#m7808928c8f" x="336.953893" y="71.8759" style="stroke: #000000; stroke-linejoin: miter"/>
     <use xlink:href="#m7808928c8f" x="352.218056" y="72.181409" style="stroke: #000000; stroke-linejoin: miter"/>
     <use xlink:href="#m7808928c8f" x="367.482219" y="72.337609" style="stroke: #000000; stroke-linejoin: miter"/>
     <use xlink:href="#m7808928c8f" x="382.746383" y="72.754526" style="stroke: #000000; stroke-linejoin: miter"/>
     <use xlink:href="#m7808928c8f" x="398.010546" y="73.039361" style="stroke: #000000; stroke-linejoin: miter"/>
     <use xlink:href="#m7808928c8f" x="413.274709" y="73.267918" style="stroke: #000000; stroke-linejoin: miter"/>
    </g>
   </g>
   <g id="line2d_21">
    <path d="M 62.198956 62.785286 
L 414.331459 62.785286 
" clip-path="url(#p74dc3adf8a)" style="fill: none; stroke-dasharray: 7.5,4.5,7.5,4.5; stroke-dashoffset: 0; stroke: #000000; stroke-width: 1.5"/>
   </g>
   <g id="patch_3">
    <path d="M 52.805625 273.747266 
L 52.805625 10.999219 
" style="fill: none; stroke: #000000; stroke-width: 0.8; stroke-linejoin: miter; stroke-linecap: square"/>
   </g>
   <g id="patch_4">
    <path d="M 62.198956 285.790751 
L 414.331459 285.790751 
" style="fill: none; stroke: #000000; stroke-width: 0.8; stroke-linejoin: miter; stroke-linecap: square"/>
   </g>
   <g id="legend_1">
    <g id="patch_5">
     <path d="M 63.432625 275.246751 
L 175.406063 275.246751 
Q 177.406063 275.246751 177.406063 273.246751 
L 177.406063 200.856126 
Q 177.406063 198.856126 175.406063 198.856126 
L 63.432625 198.856126 
Q 61.432625 198.856126 61.432625 200.856126 
L 61.432625 273.246751 
Q 61.432625 275.246751 63.432625 275.246751 
z
" style="fill: #ffffff; opacity: 0.8; stroke: #cccccc; stroke-linejoin: miter"/>
    </g>
    <g id="line2d_22">
     <g>
      <use xlink:href="#m270ce3e9e6" x="75.432625" y="206.954564" style="stroke: #000000; stroke-linejoin: miter"/>
     </g>
    </g>
    <g id="text_11">
     <!-- $N_x=128$ -->
     <g transform="translate(93.432625 210.454564) scale(0.1 -0.1)">
      <defs>
       <path id="DejaVuSans-Oblique-4e" d="M 1081 4666 
L 1931 4666 
L 3219 666 
L 4000 4666 
L 4616 4666 
L 3706 0 
L 2853 0 
L 1569 4025 
L 788 0 
L 172 0 
L 1081 4666 
z
" transform="scale(0.015625)"/>
       <path id="DejaVuSans-Oblique-78" d="M 3841 3500 
L 2234 1784 
L 3219 0 
L 2559 0 
L 1819 1388 
L 531 0 
L -166 0 
L 1556 1844 
L 641 3500 
L 1300 3500 
L 1972 2234 
L 3144 3500 
L 3841 3500 
z
" transform="scale(0.015625)"/>
       <path id="DejaVuSans-3d" d="M 678 2906 
L 4684 2906 
L 4684 2381 
L 678 2381 
L 678 2906 
z
M 678 1631 
L 4684 1631 
L 4684 1100 
L 678 1100 
L 678 1631 
z
" transform="scale(0.015625)"/>
       <path id="DejaVuSans-38" d="M 2034 2216 
Q 1584 2216 1326 1975 
Q 1069 1734 1069 1313 
Q 1069 891 1326 650 
Q 1584 409 2034 409 
Q 2484 409 2743 651 
Q 3003 894 3003 1313 
Q 3003 1734 2745 1975 
Q 2488 2216 2034 2216 
z
M 1403 2484 
Q 997 2584 770 2862 
Q 544 3141 544 3541 
Q 544 4100 942 4425 
Q 1341 4750 2034 4750 
Q 2731 4750 3128 4425 
Q 3525 4100 3525 3541 
Q 3525 3141 3298 2862 
Q 3072 2584 2669 2484 
Q 3125 2378 3379 2068 
Q 3634 1759 3634 1313 
Q 3634 634 3220 271 
Q 2806 -91 2034 -91 
Q 1263 -91 848 271 
Q 434 634 434 1313 
Q 434 1759 690 2068 
Q 947 2378 1403 2484 
z
M 1172 3481 
Q 1172 3119 1398 2916 
Q 1625 2713 2034 2713 
Q 2441 2713 2670 2916 
Q 2900 3119 2900 3481 
Q 2900 3844 2670 4047 
Q 2441 4250 2034 4250 
Q 1625 4250 1398 4047 
Q 1172 3844 1172 3481 
z
" transform="scale(0.015625)"/>
      </defs>
      <use xlink:href="#DejaVuSans-Oblique-4e" transform="translate(0 0.78125)"/>
      <use xlink:href="#DejaVuSans-Oblique-78" transform="translate(74.804688 -15.625) scale(0.7)"/>
      <use xlink:href="#DejaVuSans-3d" transform="translate(138.447266 0.78125)"/>
      <use xlink:href="#DejaVuSans-31" transform="translate(241.71875 0.78125)"/>
      <use xlink:href="#DejaVuSans-32" transform="translate(305.341797 0.78125)"/>
      <use xlink:href="#DejaVuSans-38" transform="translate(368.964844 0.78125)"/>
     </g>
    </g>
    <g id="line2d_23">
     <g>
      <use xlink:href="#m8fd083ffbf" x="75.432625" y="221.632689" style="stroke: #000000"/>
     </g>
    </g>
    <g id="text_12">
     <!-- $N_x=256$ -->
     <g transform="translate(93.432625 225.132689) scale(0.1 -0.1)">
      <defs>
       <path id="DejaVuSans-35" d="M 691 4666 
L 3169 4666 
L 3169 4134 
L 1269 4134 
L 1269 2991 
Q 1406 3038 1543 3061 
Q 1681 3084 1819 3084 
Q 2600 3084 3056 2656 
Q 3513 2228 3513 1497 
Q 3513 744 3044 326 
Q 2575 -91 1722 -91 
Q 1428 -91 1123 -41 
Q 819 9 494 109 
L 494 744 
Q 775 591 1075 516 
Q 1375 441 1709 441 
Q 2250 441 2565 725 
Q 2881 1009 2881 1497 
Q 2881 1984 2565 2268 
Q 2250 2553 1709 2553 
Q 1456 2553 1204 2497 
Q 953 2441 691 2322 
L 691 4666 
z
" transform="scale(0.015625)"/>
      </defs>
      <use xlink:href="#DejaVuSans-Oblique-4e" transform="translate(0 0.78125)"/>
      <use xlink:href="#DejaVuSans-Oblique-78" transform="translate(74.804688 -15.625) scale(0.7)"/>
      <use xlink:href="#DejaVuSans-3d" transform="translate(138.447266 0.78125)"/>
      <use xlink:href="#DejaVuSans-32" transform="translate(241.71875 0.78125)"/>
      <use xlink:href="#DejaVuSans-35" transform="translate(305.341797 0.78125)"/>
      <use xlink:href="#DejaVuSans-36" transform="translate(368.964844 0.78125)"/>
     </g>
    </g>
    <g id="line2d_24">
     <g>
      <use xlink:href="#mcd9e00264b" x="75.432625" y="236.310814" style="stroke: #000000; stroke-linejoin: miter"/>
     </g>
    </g>
    <g id="text_13">
     <!-- $N_x=512$ -->
     <g transform="translate(93.432625 239.810814) scale(0.1 -0.1)">
      <use xlink:href="#DejaVuSans-Oblique-4e" transform="translate(0 0.78125)"/>
      <use xlink:href="#DejaVuSans-Oblique-78" transform="translate(74.804688 -15.625) scale(0.7)"/>
      <use xlink:href="#DejaVuSans-3d" transform="translate(138.447266 0.78125)"/>
      <use xlink:href="#DejaVuSans-35" transform="translate(241.71875 0.78125)"/>
      <use xlink:href="#DejaVuSans-31" transform="translate(305.341797 0.78125)"/>
      <use xlink:href="#DejaVuSans-32" transform="translate(368.964844 0.78125)"/>
     </g>
    </g>
    <g id="line2d_25">
     <g>
      <use xlink:href="#m7808928c8f" x="75.432625" y="250.988939" style="stroke: #000000; stroke-linejoin: miter"/>
     </g>
    </g>
    <g id="text_14">
     <!-- $N_x=1024$ -->
     <g transform="translate(93.432625 254.488939) scale(0.1 -0.1)">
      <use xlink:href="#DejaVuSans-Oblique-4e" transform="translate(0 0.78125)"/>
      <use xlink:href="#DejaVuSans-Oblique-78" transform="translate(74.804688 -15.625) scale(0.7)"/>
      <use xlink:href="#DejaVuSans-3d" transform="translate(138.447266 0.78125)"/>
      <use xlink:href="#DejaVuSans-31" transform="translate(241.71875 0.78125)"/>
      <use xlink:href="#DejaVuSans-30" transform="translate(305.341797 0.78125)"/>
      <use xlink:href="#DejaVuSans-32" transform="translate(368.964844 0.78125)"/>
      <use xlink:href="#DejaVuSans-34" transform="translate(432.587891 0.78125)"/>
     </g>
    </g>
    <g id="line2d_26">
     <path d="M 65.432625 265.667064 
L 75.432625 265.667064 
L 85.432625 265.667064 
" style="fill: none; stroke-dasharray: 7.5,4.5,7.5,4.5; stroke-dashoffset: 0; stroke: #000000; stroke-width: 1.5"/>
    </g>
    <g id="text_15">
     <!-- best travel time -->
     <g transform="translate(93.432625 269.167064) scale(0.1 -0.1)">
      <defs>
       <path id="DejaVuSerif-62" d="M 738 331 
L 738 4531 
L 184 4531 
L 184 4863 
L 1313 4863 
L 1313 2803 
Q 1481 3116 1742 3264 
Q 2003 3413 2388 3413 
Q 3000 3413 3387 2928 
Q 3775 2444 3775 1663 
Q 3775 881 3387 395 
Q 3000 -91 2388 -91 
Q 2003 -91 1742 57 
Q 1481 206 1313 519 
L 1313 0 
L 184 0 
L 184 331 
L 738 331 
z
M 1313 1497 
Q 1313 897 1542 583 
Q 1772 269 2209 269 
Q 2650 269 2876 622 
Q 3103 975 3103 1663 
Q 3103 2353 2876 2703 
Q 2650 3053 2209 3053 
Q 1772 3053 1542 2737 
Q 1313 2422 1313 1825 
L 1313 1497 
z
" transform="scale(0.015625)"/>
       <path id="DejaVuSerif-73" d="M 359 184 
L 359 959 
L 691 959 
Q 703 588 923 403 
Q 1144 219 1575 219 
Q 1963 219 2166 364 
Q 2369 509 2369 788 
Q 2369 1006 2220 1140 
Q 2072 1275 1594 1428 
L 1178 1569 
Q 750 1706 558 1912 
Q 366 2119 366 2438 
Q 366 2894 700 3153 
Q 1034 3413 1625 3413 
Q 1888 3413 2178 3344 
Q 2469 3275 2778 3144 
L 2778 2419 
L 2447 2419 
Q 2434 2741 2221 2922 
Q 2009 3103 1644 3103 
Q 1281 3103 1095 2975 
Q 909 2847 909 2591 
Q 909 2381 1050 2254 
Q 1191 2128 1613 1997 
L 2069 1856 
Q 2541 1709 2748 1489 
Q 2956 1269 2956 922 
Q 2956 450 2595 179 
Q 2234 -91 1600 -91 
Q 1278 -91 972 -22 
Q 666 47 359 184 
z
" transform="scale(0.015625)"/>
      </defs>
      <use xlink:href="#DejaVuSerif-62"/>
      <use xlink:href="#DejaVuSerif-65" transform="translate(64.013672 0)"/>
      <use xlink:href="#DejaVuSerif-73" transform="translate(123.193359 0)"/>
      <use xlink:href="#DejaVuSerif-74" transform="translate(174.511719 0)"/>
      <use xlink:href="#DejaVuSerif-20" transform="translate(214.697266 0)"/>
      <use xlink:href="#DejaVuSerif-74" transform="translate(246.484375 0)"/>
      <use xlink:href="#DejaVuSerif-72" transform="translate(286.669922 0)"/>
      <use xlink:href="#DejaVuSerif-61" transform="translate(334.472656 0)"/>
      <use xlink:href="#DejaVuSerif-76" transform="translate(394.091797 0)"/>
      <use xlink:href="#DejaVuSerif-65" transform="translate(450.585938 0)"/>
      <use xlink:href="#DejaVuSerif-6c" transform="translate(509.765625 0)"/>
      <use xlink:href="#DejaVuSerif-20" transform="translate(541.748047 0)"/>
      <use xlink:href="#DejaVuSerif-74" transform="translate(573.535156 0)"/>
      <use xlink:href="#DejaVuSerif-69" transform="translate(613.720703 0)"/>
      <use xlink:href="#DejaVuSerif-6d" transform="translate(645.703125 0)"/>
      <use xlink:href="#DejaVuSerif-65" transform="translate(740.527344 0)"/>
     </g>
    </g>
   </g>
  </g>
 </g>
 <defs>
  <clipPath id="p74dc3adf8a">
   <rect x="52.805625" y="8.590751" width="362.7" height="277.2"/>
  </clipPath>
 </defs>
</svg>
